<svg id="Layer_1" data-name="Layer 1" xmlns="http://www.w3.org/2000/svg" xmlns:xlink="http://www.w3.org/1999/xlink" viewBox="0 0 71.15 71.16"><defs><style>.cls-1{fill:none;}.cls-2{fill:#44b649;}.cls-3{fill:#d3e7d2;}.cls-4{fill:#6261ac;}.cls-5{fill:url(#New_Pattern_Swatch_18);}.cls-6{fill:url(#New_Pattern_Swatch_3);}.cls-7{fill:url(#New_Pattern_Swatch_5);}</style><pattern id="New_Pattern_Swatch_18" data-name="New Pattern Swatch 18" width="165.65" height="165.65" patternTransform="translate(-123 123)" patternUnits="userSpaceOnUse" viewBox="0 0 165.65 165.65"><rect class="cls-1" width="165.65" height="165.65"/><rect class="cls-2" width="165.65" height="165.65"/></pattern><pattern id="New_Pattern_Swatch_3" data-name="New Pattern Swatch 3" width="165.65" height="165.65" patternTransform="translate(-123 123)" patternUnits="userSpaceOnUse" viewBox="0 0 165.65 165.65"><rect class="cls-1" width="165.65" height="165.65"/><rect class="cls-3" width="165.65" height="165.65"/></pattern><pattern id="New_Pattern_Swatch_5" data-name="New Pattern Swatch 5" width="165.65" height="165.65" patternTransform="translate(-123 123)" patternUnits="userSpaceOnUse" viewBox="0 0 165.65 165.65"><rect class="cls-1" width="165.65" height="165.65"/><rect class="cls-4" width="165.65" height="165.65"/></pattern></defs><title>ghoist_valborg</title><path class="cls-5" d="M23.59,65.53c-16.38,0-18.12-16-18.12-32.42a29.66,29.66,0,1,1,59.31,0c0,16.38,7.23,32.42-9.15,32.42h-32Z"/><circle class="cls-6" cx="44.96" cy="26.72" r="10.05"/><circle class="cls-6" cx="20.95" cy="26.72" r="10.05"/><circle class="cls-5" cx="39.75" cy="26.72" r="2.56"/><circle class="cls-5" cx="26.38" cy="26.72" r="2.56"/><path class="cls-7" d="M35,11.62A25.13,25.13,0,0,0,7.69,10.5c-2.75,1.66-.24,6,2.52,4.32a20.22,20.22,0,0,1,22.25,1.12,2.52,2.52,0,0,0,3.42-.9,2.56,2.56,0,0,0-.9-3.42Z"/><path class="cls-7" d="M52,50.52A25.11,25.11,0,0,0,24.67,49.4c-2.76,1.66-.24,6,2.52,4.32a20.2,20.2,0,0,1,22.24,1.12,2.52,2.52,0,0,0,3.42-.9,2.56,2.56,0,0,0-.9-3.42Z"/></svg>